<svg viewBox="0 0 1025 724" width="200.1953125" height="120" xmlns="http://www.w3.org/2000/svg" class="icon">
    <g>
        <title>background</title>
        <rect fill="none" id="canvas_background" height="402" width="2" y="-1" x="-1"/>
    </g>
    <g>
        <title>Layer 1</title>
        <path id="svg_1" fill="#FFFFFF" d="m193.5628,664.76817c-10.55978,-78.79989 35.66417,-188.68139 73.71923,-234.00876c-2.29127,-27.49528 -5.87761,-98.12628 15.34157,-110.27999c17.53322,-10.06168 60.66894,14.54461 88.0646,32.57594l272.16344,1.89279c27.19642,-18.03133 72.72303,-44.72965 90.85397,-34.36911c23.61008,13.5484 16.4374,99.52097 14.64423,117.85116c36.46113,43.83305 60.37007,176.42805 60.37007,234.40724"/>
        <path id="svg_2" fill="#6B3437" d="m814.99601,672.73781l-12.55219,0c0,-30.28465 -6.37572,-77.80367 -16.33778,-121.03901c-11.85485,-51.8027 -26.99718,-90.55511 -42.53799,-109.28378c-1.09583,-1.29507 -1.59393,-2.98862 -1.39469,-4.68217c4.78179,-47.9175 3.18786,-103.30654 -11.55598,-111.77429c-4.18407,-2.3909 -22.41464,-6.87382 -84.27902,34.16986c-0.99621,0.69734 -2.29127,1.09582 -3.48672,1.09582l-272.16344,-1.89279c-1.19545,0 -2.39089,-0.39848 -3.3871,-0.9962c-59.67273,-39.15089 -77.50482,-34.66797 -81.48964,-32.37669c-12.05409,6.87382 -16.83588,47.81788 -12.15371,104.30275c0.09962,1.69355 -0.39848,3.28748 -1.49431,4.58255c-37.15848,44.13191 -82.58547,152.61873 -72.32454,229.12734l-12.45258,1.69355c-4.88141,-36.46113 1.79317,-83.48205 18.92791,-132.49538c14.34537,-41.1433 34.66797,-79.89571 54.59208,-104.40237c-1.09582,-13.64802 -2.39089,-37.35772 -0.9962,-59.27425c1.99241,-30.18503 8.36813,-48.01712 19.62525,-54.49246c15.64044,-8.96585 47.02092,1.69355 93.14525,31.67935l268.37786,1.79317c47.61864,-31.38048 79.89571,-42.73723 95.93462,-33.57214c12.15371,6.97344 18.72867,27.39566 20.02374,62.36249c0.89658,23.61008 -0.89658,47.61864 -1.99241,58.97539c37.2581,48.11674 59.97159,179.51629 59.97159,236.49927l0,-0.00001z"/>
        <path id="svg_4" d="m330.44148,517.03084a21.71729,14.84347 90 1 0 29.68694,0a21.71729,14.84347 90 1 0 -29.68694,0z"/>
        <path id="svg_5" fill="#FEAE02" d="m505.07637,364.01362l138.57223,0s66.24769,-42.03989 84.97636,-35.76379c18.72867,6.2761 26.5987,28.49149 17.53323,115.55988c0,0 30.88238,57.48108 30.58352,72.52378c0,0 -87.86536,127.31511 -242.07803,33.57214c-78.99912,-55.38904 -63.85679,-152.31987 -29.58731,-185.89201z"/>
        <path id="svg_6" d="m604.29847,517.03084a21.71729,14.84347 90 1 0 29.68694,0a21.71729,14.84347 90 1 0 -29.68694,0z"/>
        <path id="svg_7" d="m467.02131,580.68839c-6.07686,0 -11.75523,-2.68975 -15.54082,-7.47154c-1.39468,-1.79317 -1.09582,-4.28368 0.59773,-5.77799c1.79317,-1.39469 4.28368,-1.09583 5.77799,0.59772c2.29127,2.78937 5.57875,4.3833 9.1651,4.3833c6.47533,0 11.85485,-5.27989 11.85484,-11.85484c0,-2.29128 1.79318,-4.08445 4.08445,-4.08445s4.08444,1.79317 4.08444,4.08445c0,11.1575 -8.96585,20.12335 -20.02373,20.12335z"/>
        <path id="svg_8" d="m499.09913,580.68839c-11.05788,0 -19.92411,-8.96585 -19.92411,-19.92411c0,-2.29128 1.79317,-4.08445 4.08444,-4.08445s4.08445,1.79317 4.08445,4.08445c0,6.47533 5.27989,11.85485 11.85485,11.85485c3.58634,0 6.97344,-1.59393 9.16509,-4.38331c1.39469,-1.79317 3.98482,-1.99241 5.77799,-0.59772c1.79317,1.39468 1.99241,3.98482 0.59773,5.77799c-3.88521,4.48293 -9.56358,7.2723 -15.64044,7.2723z"/>
        <path id="svg_9" fill="#F97700" d="m495.71203,390.31345c-4.28368,11.75523 -8.56737,17.23437 -18.72867,17.23437c-10.1613,0 -14.64422,-7.96965 -18.4298,-18.52943c-4.78179,-13.14992 4.68216,-25.80174 18.33018,-25.40325c16.63664,0.4981 23.61008,13.5484 18.82829,26.69831zm49.41181,-7.07306c-3.08823,5.97724 -6.17647,8.66699 -13.5484,8.66699c-7.2723,0 -10.55978,-4.08444 -13.24953,-9.36433c-3.48672,-6.67458 3.3871,-13.0503 13.24953,-12.85106c12.0541,0.29887 17.03512,6.87382 13.5484,13.5484zm-103.20692,0c-3.08824,5.97724 -6.17648,8.66699 -13.5484,8.66699c-7.27231,0 -10.55978,-4.08444 -13.24954,-9.36433c-3.48672,-6.67458 3.3871,-13.0503 13.24954,-12.85106c12.05409,0.29887 17.03512,6.87382 13.5484,13.5484z"/>
        <path id="svg_10" d="m467.32017,534.66368l33.37289,0c5.37952,0 8.26851,6.2761 4.78179,10.36054l-17.13474,16.4374c-2.49051,2.889 -7.07306,2.889 -9.56357,0l-16.23816,-16.4374c-3.48672,-4.08444 -0.59773,-10.36054 4.78179,-10.36054z"/>
        <path id="svg_11" fill="#FEE6A5" d="m667.45792,364.51172c18.03133,-11.95447 46.4232,-27.99338 67.2439,-34.26948c-0.19924,-0.09962 -0.39848,-0.19924 -0.59772,-0.39848c-18.03133,-10.26092 -63.25908,16.53702 -90.55512,34.56834l23.90894,0l0,0.09962z"/>
        <path id="svg_12" fill="#F1E8E3" d="m295.87314,437.43399c-2.29127,-27.19642 -18.23057,-96.43273 9.56358,-109.18416c-6.2761,-0.89659 -12.65182,-1.09583 -16.73626,1.19545c-21.21919,12.15371 -16.73626,80.59305 -14.44499,108.08833c-38.15468,45.32737 -84.37863,155.10925 -73.71923,234.00876l24.60628,0.29886c-9.86243,-78.79988 32.77518,-189.47835 70.73062,-234.40724z"/>
        <path id="svg_13" fill="#FFFFFF" d="m430.84658,513.73781c1.29507,28.79035 -26.69832,39.649 -63.75717,39.649s-72.12531,-7.77041 -70.33214,-39.649c1.69355,-30.68314 36.2619,-55.58828 67.04466,-55.58828c34.3691,0 65.64996,24.90514 67.04465,55.58828z"/>
        <path id="svg_14" fill="#6B3437" d="m366.08941,554.86215c-33.3729,0 -55.38905,-6.07686 -67.2439,-18.62905c-6.97344,-7.37193 -10.1613,-16.73626 -9.56358,-27.89377c0.89659,-16.33777 9.86244,-31.87858 25.10439,-44.0323c14.14612,-11.25712 31.87859,-17.73246 48.41561,-17.73246c38.35392,0 72.02568,28.29225 73.51999,61.76476c0.4981,11.35675 -2.889,20.92033 -10.1613,28.49149c-11.35675,12.05409 -31.57973,18.03133 -60.07121,18.03133zm-3.28748,-95.13766c-32.47632,0 -59.17463,26.59869 -60.4697,49.41181c-0.39848,7.47154 1.59393,13.44878 5.97724,18.23056c9.16509,9.6632 28.5911,14.54461 57.77994,14.54461c24.40704,0 41.94026,-4.78179 50.70687,-13.94688c4.68217,-4.88141 6.87382,-11.05789 6.47534,-18.82829c-1.19544,-26.79794 -28.88997,-49.41181 -60.46969,-49.41181z"/>
        <path id="svg_15" fill="#F1E8E3" d="m422.47466,507.84123c-0.59773,-7.07306 -3.18786,-14.64423 -8.16889,-21.51805c0.4981,2.3909 0.79696,4.78179 0.9962,7.17268c1.09583,25.6025 -16.63663,33.47252 -49.61105,33.47252s-57.18221,-6.57496 -55.58828,-34.96682c0.09962,-1.99241 1.29506,-3.28748 1.69355,-5.18027c-3.78559,5.57875 -7.27231,11.35674 -8.16889,18.92791c-3.68596,30.28466 27.89376,37.45734 62.16324,37.45734c28.59111,0.09962 58.87577,-9.1651 56.68412,-35.36531z"/>
        <path id="svg_16" fill="#E0930A" d="m745.85933,440.72147s23.80931,35.16607 32.07782,71.22872c0,0 -3.18786,6.57496 -10.6594,13.44878c0,0 -1.49431,-37.15848 -21.41842,-84.6775z"/>
        <path id="svg_17" fill="#F1E8E3" d="m777.93715,511.95019s-5.77799,8.56737 -10.6594,13.44878c-4.88141,4.88141 0,0 0,0s15.34157,82.08736 12.55219,140.56465l24.20781,2.59013c-0.09962,0 -5.57876,-106.89289 -26.1006,-156.60356"/>
        <path id="svg_18" fill="#FFFFFF" d="m681.67721,505.73781c1.2,28.79035 -26.69832,39.649 -63.75718,39.649s-72.1253,-7.77041 -70.33213,-39.649c1.69355,-30.68314 36.26189,-55.58828 67.04465,-55.58828c34.3691,0 65.64997,24.90514 67.04466,55.58828z"/>
        <path id="svg_19" fill="#6B3437" d="m620.92003,551.86215c-33.37289,0 -55.38905,-6.07686 -67.24389,-18.62905c-6.97344,-7.37193 -10.1613,-16.73626 -9.56358,-27.89377c0.89658,-16.33777 9.86244,-31.87858 25.10439,-44.0323c14.14612,-11.25712 31.87858,-17.73246 48.4156,-17.73246c38.35393,0 72.02568,28.29225 73.51999,61.76476c0.49811,11.35675 -2.88899,20.92033 -10.1613,28.49149c-11.35674,12.05409 -31.57972,18.03133 -60.07121,18.03133zm-3.28748,-95.13766c-32.47631,0 -59.17463,26.59869 -60.46969,49.41181c-0.39849,7.47154 1.59393,13.44878 5.97723,18.23056c9.1651,9.6632 28.59111,14.54461 57.77994,14.54461c24.40704,0 41.94027,-4.78179 50.70688,-13.94688c4.68217,-4.88141 6.87382,-11.05789 6.47534,-18.82829c-1.19545,-26.79794 -28.88997,-49.41181 -60.4697,-49.41181z"/>
        <path id="svg_20" fill="#F1E8E3" d="m677.50452,503.64199c-0.59772,-7.07306 -3.48672,-14.74385 -8.46775,-21.71729c0.49811,2.3909 0.79697,4.78179 0.99621,7.17268c1.09583,25.60249 -16.4374,33.77138 -49.41181,33.77138s-57.28184,-6.57496 -55.68791,-34.96682c0.09962,-1.99242 1.09583,-2.98862 1.49431,-4.88141c-3.78558,5.57875 -7.07306,10.1613 -7.96965,17.73246c-3.68596,30.38428 26.39946,38.25431 62.26287,38.35393c34.66796,0.29886 58.87577,-9.26472 56.78373,-35.46493z"/>
        <path id="svg_21" fill="#F97700" d="m250.24691,566.14379c-3.08824,2.98862 -6.17647,4.3833 -13.5484,4.3833s-10.55978,-1.99241 -13.24954,-4.68216c-3.48672,-3.28748 3.3871,-6.57496 13.24954,-6.37572c11.95447,0.09962 17.03512,3.3871 13.5484,6.67458zm-3.08824,29.58731c-3.08823,4.58255 -6.17647,6.67458 -13.5484,6.67458s-10.55978,-3.08824 -13.24953,-7.17268c-3.48672,-5.18027 3.3871,-10.06168 13.24953,-9.86244c11.95447,0.09962 17.03512,5.18027 13.5484,10.36054zm544.02802,-7.07306c-3.08824,4.58255 -6.17647,6.67458 -13.5484,6.67458s-10.55978,-3.08824 -13.24954,-7.17268c-3.48672,-5.18027 3.3871,-10.06168 13.24954,-9.86244c12.05409,0.09962 17.03512,5.18027 13.5484,10.36054z"/>
        <path id="svg_3" fill="#6B3437" d="m871.68012,679.21315l-764.08989,0c-4.08444,0 -7.37192,-3.28748 -7.37192,-7.37192s3.28748,-7.37192 7.37192,-7.37192l764.08989,0c4.08445,0 7.37193,3.28747 7.37193,7.37192s-3.28748,7.37192 -7.37193,7.37192z"/>
    </g>
</svg>